<svg xmlns="http://www.w3.org/2000/svg" version="1.1" xmlns:xlink="http://www.w3.org/1999/xlink" width="64" height="64">
  <path style="fill:#1c0c63" d="m 60.794885,47.298535 c -4e-5,0.8154 -0.22993,1.7869 -0.68968,2.9157 -0.43896,1.1284 -1.17045,2.1212 -2.19451,2.9783 -1.00324,0.8567 -2.28858,1.2853 -3.85605,1.2853 H 3.205115 v -27.68182 h 39.37548 c 0.58515,0 1.32711,-0.29293 2.22586,-0.878 0.89862,-0.60593 1.34797,-1.44219 1.34801,-2.50799 -4e-5,-0.7524 -0.36556,-1.52566 -1.09721,-2.31979 -0.71067,-0.815 -1.69296,-1.2227 -2.94691,-1.2227 H 3.205115 V 9.522165 h 47.307 c 1.40026,0 2.73784,0.44944 4.01279,1.3479 1.27486,0.878 2.29892,1.95423 3.07231,3.22909 0.77322,1.25399 1.15985,2.40366 1.15994,3.44859 v 6.36388 c -9e-5,1.17053 -0.1569,2.12156 -0.47026,2.85269 -0.3134,0.73153 -0.74201,1.35873 -1.28534,1.88119 -0.54345,0.52247 -1.44216,1.27487 -2.69611,2.2572 1.98545,1.35833 3.56339,2.61232 4.73384,3.76199 1.17033,1.12839 1.75556,2.36152 1.7556,3.69939 v 8.93445 m -13.41776,-6.55206 c -4e-5,-2.069 -1.04505,-3.10349 -3.13499,-3.10349 h -28.12086 v 5.98785 h 28.62246 c 0.79417,0 1.4316,-0.2809 1.91233,-0.8467 0.48065,-0.5642 0.72102,-1.24353 0.72106,-2.03766" />
</svg>
