<svg xmlns="http://www.w3.org/2000/svg" version="1.1" xmlns:xlink="http://www.w3.org/1999/xlink" width="208" height="134">
  <rect style="fill:#000000;" x="0" y="0" width="208" height="134" />
  <g style="fill:#ffffff;stroke:#000000;stroke-width:4;paint-order:markers stroke fill">
    <path d="M 58.433594 19.9375 C 92.620811 25.9376 119.52381 34.4125 119.13672 52.5625 C 118.74963 70.7125 61.443868 81.914378 10 73.642578 C 60.090247 86.238138 110.82157 80.799103 130.9043 66.316406 C 157.46804 72.051248 176.75504 81.531968 175.92969 95.322266 C 174.9435 111.79996 126.32277 125.04914 67.066406 116.71484 C 127.28721 132.32354 188.38873 121.30443 196.52148 98.332031 C 203.42292 78.837687 167.75914 68.389451 132.96094 64.710938 C 136.33073 61.851734 138.56846 58.681556 139.45508 55.259766 C 145.20134 33.082786 98.065388 22.03967 58.433594 19.9375 z " />
    <path d="M 54.527344 10.050781 C 86.416464 14.459891 119.07473 23.970526 113.45312 43.166016 C 107.83152 62.361516 52.447713 69.662086 10.726562 64.572266 C 59.059188 75.287011 105.85653 68.89427 125.18359 55.314453 C 151.7125 60.453273 174.56763 69.7532 169.79297 86.056641 C 164.17136 105.25214 108.78755 112.55269 67.066406 107.46289 C 127.90594 120.95029 186.31884 107.33208 190.5625 86.392578 C 194.24514 68.221258 160.89643 58.25468 126.51953 54.330078 C 130.74877 51.060635 133.43065 47.407999 134.22266 43.5 C 138.46632 22.56045 93.540419 12.506491 54.527344 10.050781 z " />
  </g>
</svg>
