<svg xmlns="http://www.w3.org/2000/svg" version="1.1" xmlns:xlink="http://www.w3.org/1999/xlink" width="208" height="134">
  <g transform="translate(10,10)">
    <g style="fill:#6479b2;">
      <path d="m 104.66482,53.373262 c 34.56221,5.1251 62.25136,15.47151 61.26517,31.94921 -0.98619,16.477698 -49.60683,29.726198 -108.863193,21.391898 60.220803,15.6087 121.322883,4.5909 129.455633,-18.381498 8.13275,-22.9724 -42.84454,-33.38777 -81.85761,-34.95961 z" />
      <path d="M 48.434074,9.9371117 C 82.621291,15.937212 109.52388,24.413032 109.13679,42.563032 108.7497,60.713032 51.443868,71.913472 0,63.641672 c 61.369854,15.4319 123.70938,3.7955 129.45564,-18.38148 C 135.2019,23.083212 88.065868,12.039282 48.434074,9.9371117 z" />
    </g>
    <g style="fill:#1c0c63;">
      <path d="m 100.8665,42.941272 c 31.88912,4.40911 64.54822,13.91987 58.92661,33.1153 -5.62161,19.1955 -61.005165,26.496898 -102.726313,21.4071 60.839533,13.487398 119.252113,-0.1323 123.495773,-21.0718 4.24366,-20.93957 -40.68299,-30.99489 -79.69607,-33.4506 z" />
      <path d="M 44.526674,0.05035167 C 76.415794,4.4594617 109.07489,13.970222 103.45328,33.165712 97.831672,52.361212 42.448123,59.662622 0.72697266,54.572802 61.566497,68.060172 119.97908,54.440472 124.22274,33.500932 128.4664,12.561382 83.539749,2.5060617 44.526674,0.05035167 z" />
    </g>
  </g>
</svg>
