<svg xmlns="http://www.w3.org/2000/svg" version="1.1" xmlns:xlink="http://www.w3.org/1999/xlink" width="208" height="160">
  <rect style="fill:#000000;" x="0" y="0" width="208" height="160" />
  <g style="fill:#ffffff" transform="translate(10,10)">
    <g style="stroke:#000000;stroke-width:4;paint-order:markers stroke fill" transform="translate(-10,-10)">
      <path d="M 58.433594 19.9375 C 92.620811 25.9376 119.52381 34.4125 119.13672 52.5625 C 118.74963 70.7125 61.443868 81.914378 10 73.642578 C 60.090247 86.238138 110.82157 80.799103 130.9043 66.316406 C 157.46804 72.051248 176.75504 81.531968 175.92969 95.322266 C 174.9435 111.79996 126.32277 125.04914 67.066406 116.71484 C 127.28721 132.32354 188.38873 121.30443 196.52148 98.332031 C 203.42292 78.837687 167.75914 68.389451 132.96094 64.710938 C 136.33073 61.851734 138.56846 58.681556 139.45508 55.259766 C 145.20134 33.082786 98.065388 22.03967 58.433594 19.9375 z " />
      <path d="M 54.527344 10.050781 C 86.416464 14.459891 119.07473 23.970526 113.45312 43.166016 C 107.83152 62.361516 52.447713 69.662086 10.726562 64.572266 C 59.059188 75.287011 105.85653 68.89427 125.18359 55.314453 C 151.7125 60.453273 174.56763 69.7532 169.79297 86.056641 C 164.17136 105.25214 108.78755 112.55269 67.066406 107.46289 C 127.90594 120.95029 186.31884 107.33208 190.5625 86.392578 C 194.24514 68.221258 160.89643 58.25468 126.51953 54.330078 C 130.74877 51.060635 133.43065 47.407999 134.22266 43.5 C 138.46632 22.56045 93.540419 12.506491 54.527344 10.050781 z " />
    </g>
    <g transform="matrix(0.26557766,0,0,0.26557766,-42.316463,119.1182)">
      <path d="m 281.84683,66.780772 c -4e-5,0.8154 -0.22993,1.7869 -0.68968,2.9157 -0.43896,1.1284 -1.17045,2.1212 -2.19451,2.9783 -1.00324,0.8567 -2.28858,1.2853 -3.85605,1.2853 h -50.84953 v -27.68182 h 39.37548 c 0.58515,0 1.32711,-0.29293 2.22586,-0.878 0.89862,-0.60593 1.34797,-1.44219 1.34801,-2.50799 -4e-5,-0.7524 -0.36556,-1.52566 -1.09721,-2.31979 -0.71067,-0.815 -1.69296,-1.2227 -2.94691,-1.2227 h -38.90523 v -10.34537 h 47.307 c 1.40026,0 2.73784,0.44944 4.01279,1.3479 1.27486,0.878 2.29892,1.95423 3.07231,3.22909 0.77322,1.25399 1.15985,2.40366 1.15994,3.44859 v 6.36388 c -9e-5,1.17053 -0.1569,2.12156 -0.47026,2.85269 -0.3134,0.73153 -0.74201,1.35873 -1.28534,1.88119 -0.54345,0.52247 -1.44216,1.27487 -2.69611,2.2572 1.98545,1.35833 3.56339,2.61232 4.73384,3.76199 1.17033,1.12839 1.75556,2.36152 1.7556,3.69939 v 8.93445 m -13.41776,-6.55206 c -4e-5,-2.069 -1.04505,-3.10349 -3.13499,-3.10349 h -28.12086 v 5.98785 h 28.62246 c 0.79417,0 1.4316,-0.2809 1.91233,-0.8467 0.48065,-0.5642 0.72102,-1.24353 0.72106,-2.03766" />
      <path d="m 349.93882,74.022672 h -13.29236 c -1.00323,-5.5593 -1.96462,-9.7916 -2.88419,-12.69646 -0.91965,-2.92613 -2.18408,-4.38919 -3.79333,-4.38919 h -29.34351 v 17.08565 h -12.91616 v -27.39972 h 40.06516 c 1.10765,0 2.10041,-0.32504 2.97825,-0.9719 0.87776,-0.66893 1.31668,-1.52566 1.31672,-2.57059 -4e-5,-0.41813 -0.14647,-0.89886 -0.43892,-1.4422 -0.29253,-0.56419 -0.74201,-1.04493 -1.34806,-1.44219 -0.58522,-0.39727 -1.33762,-0.5955 -2.25719,-0.5955 h -40.31596 v -10.53357 h 49.18799 c 2.96774,0 5.11001,0.83587 6.42672,2.50799 1.31664,1.65127 1.97502,3.58423 1.97506,5.79969 v 9.09137 c -4e-5,1.88119 -0.33427,3.27082 -1.0032,4.16969 -0.64794,0.87759 -1.98553,1.87036 -4.01279,2.97829 1.31664,0.71066 2.24668,1.26443 2.79013,1.66129 0.56424,0.39727 1.25396,1.24357 2.06912,2.5397 0.81504,1.29573 1.61968,3.21825 2.41393,5.76835 0.79413,2.5498 1.58834,6.0296 2.38259,10.4393" />
      <path d="m 415.17797,74.022672 h -13.48044 v -3.1348 c -0.35513,0.7733 -1.06596,1.4944 -2.1318,2.1629 -1.06595,0.6481 -2.02734,0.9719 -2.88419,0.9719 h -36.52263 c -0.98233,0 -1.97505,-0.2488 -2.97825,-0.7524 -0.98229,-0.5225 -1.78693,-1.2436 -2.41393,-2.1629 -0.627,-0.9197 -0.95095,-1.9542 -0.97186,-3.1039 -0.0201,-2.2154 -0.0522,-5.016 -0.0939,-8.40156 -0.0201,-3.38599 -0.0321,-5.17288 -0.0321,-5.36108 0,-2.52886 0.66881,-4.51439 2.00639,-5.95619 1.35849,-1.46306 2.93644,-2.19459 4.73385,-2.19459 h 34.54758 c 1.58834,0 2.97821,0.4073 4.16952,1.2227 1.19128,0.81499 2.04817,1.62999 2.57072,2.44499 v -4.10669 c -4e-5,-0.85673 -0.26124,-1.72429 -0.78374,-2.60189 -0.50168,-0.89886 -1.2227,-1.64083 -2.16318,-2.22589 -0.94051,-0.58507 -2.03777,-0.878 -3.29173,-0.878 h -41.35053 v -10.87827 h 46.61732 c 1.96454,0 3.82463,0.48073 5.5803,1.4422 1.75552,0.96146 3.30213,2.21546 4.63979,3.76199 1.3375,1.52566 2.37208,3.11392 3.10361,4.76518 0.75236,1.65086 1.12855,3.12436 1.12859,4.42009 v 30.56621 m -16.05115,-13.98216 c -4e-5,-0.5642 -0.20906,-1.07623 -0.62699,-1.5361 -0.41802,-0.48073 -0.94052,-0.85673 -1.56748,-1.12839 -0.60613,-0.29294 -1.0973,-0.439 -1.47346,-0.439 h -25.48746 c -1.17041,0 -1.98553,0.39726 -2.44531,1.19139 -0.45979,0.79414 -0.68968,1.4105 -0.68968,1.8495 0,0.91973 0.29253,1.66166 0.8778,2.22586 0.60609,0.5642 1.21218,0.8463 1.81827,0.8463 h 26.64744 c 0.58515,0 1.22262,-0.3049 1.91234,-0.9089 0.68963,-0.62717 1.03449,-1.327 1.03453,-2.10066" />
      <path d="m 478.97503,66.780772 c -4e-5,0.8154 -0.22993,1.7869 -0.68967,2.9157 -0.43896,1.1284 -1.17045,2.1212 -2.19452,2.9783 -1.00323,0.8567 -2.28857,1.2853 -3.85605,1.2853 h -50.84952 v -27.68182 h 39.37548 c 0.58514,0 1.32711,-0.29293 2.22585,-0.878 0.89863,-0.60593 1.34798,-1.44219 1.34802,-2.50799 -4e-5,-0.7524 -0.36597,-1.52566 -1.09722,-2.31979 -0.71066,-0.815 -1.69295,-1.2227 -2.94691,-1.2227 h -38.90522 v -10.34537 h 47.307 c 1.40026,0 2.73784,0.44944 4.01278,1.3479 1.27487,0.878 2.29893,1.95423 3.07231,3.22909 0.77323,1.25399 1.15986,2.40366 1.15994,3.44859 v 6.36388 c -8e-5,1.17053 -0.1569,2.12156 -0.47026,2.85269 -0.3134,0.73153 -0.742,1.35873 -1.28533,1.88119 -0.54346,0.52247 -1.44216,1.27487 -2.69612,2.2572 1.98545,1.35833 3.5634,2.61232 4.73385,3.76199 1.17033,1.12839 1.75555,2.36152 1.75559,3.69939 v 8.93445 m -13.41775,-6.55206 c -5e-5,-2.069 -1.04506,-3.10349 -3.135,-3.10349 h -28.12085 v 5.98785 h 28.62245 c 0.79417,0 1.43161,-0.2809 1.91234,-0.8467 0.48065,-0.5642 0.72101,-1.24353 0.72106,-2.03766" />
      <path d="m 536.21998,74.022672 h -36.99289 c -2.57071,0 -4.93239,-0.7315 -7.0851,-2.1946 -2.13179,-1.4627 -3.81423,-3.2604 -5.04732,-5.392 -1.21222,-2.132 -1.81831,-4.1592 -1.81831,-6.08176 v -18.80995 c 0,-1.94379 0.76287,-3.88758 2.28857,-5.83138 1.54657,-1.94339 3.37532,-3.53205 5.4862,-4.76518 2.1318,-1.254 3.95011,-1.8808 5.45491,-1.8808 h 36.74208 v 10.28277 h -32.69796 c -0.81511,0 -1.58842,0.20867 -2.31987,0.6268 -0.71062,0.39726 -1.30628,0.93016 -1.78697,1.59909 -0.45979,0.66894 -0.68968,1.3792 -0.68968,2.1316 v 2.63359 h 37.24369 v 10.15717 h -36.99289 v 3.60549 c 0,0.8776 0.51203,1.65086 1.53613,2.31976 1.04497,0.669 2.04817,1.0032 3.00959,1.0032 h 33.66982 v 10.5962" />
      <path d="m 592.36763,74.022672 h -34.73569 c -3.59478,0 -6.59394,-0.742 -8.9974,-2.2259 -2.40349,-1.4839 -4.14866,-3.25 -5.23544,-5.2981 -1.08678,-2.069 -1.63019,-4.0128 -1.63019,-5.83096 v -19.06075 c 0,-2.04812 0.70015,-4.04408 2.10045,-5.98788 1.40026,-1.94379 3.07227,-3.52162 5.01598,-4.73388 1.94368,-1.21227 3.57387,-1.8182 4.89059,-1.8182 h 38.3409 v 10.53357 h -30.00185 c -1.12859,0 -2.25719,0.3451 -3.38579,1.0345 -1.10769,0.6898 -2.01686,1.54653 -2.72745,2.57059 -0.71058,1.02406 -1.06587,1.98553 -1.06587,2.88439 v 10.53357 c 0,1.0032 0.27166,1.98553 0.81507,2.94699 0.54341,0.96106 1.32715,1.76603 2.35126,2.41366 1.0241,0.6272 2.15266,0.9406 3.38579,0.9406 h 30.87964 v 11.0978" />
      <path d="m 661.24341,64.210172 c -9e-5,1.2958 -0.40762,2.8319 -1.22266,4.6083 -0.79425,1.7556 -2.1005,3.3025 -3.91873,4.64 -1.79745,1.3166 -4.08602,1.9751 -6.86564,1.9751 -2.86336,0 -4.98468,-0.3973 -6.36404,-1.1914 -1.37944,-0.7733 -2.85289,-2.2155 -4.42033,-4.3262 l -21.81953,-26.33391 c -0.68972,-0.91973 -1.24356,-1.5048 -1.66154,-1.7556 -0.39726,-0.27287 -0.89874,-0.4077 -1.50479,-0.4077 -0.39727,0 -0.80469,0.1565 -1.22266,0.4703 -0.41801,0.29294 -0.627,0.71067 -0.627,1.254 v 30.81701 h -12.72808 v -35.7704 c 0,-0.62679 0.19864,-1.47349 0.59566,-2.53929 0.41801,-1.08666 1.09726,-2.20502 2.03774,-3.35429 0.94051,-1.17053 2.18404,-2.15286 3.73064,-2.94699 1.56748,-0.815 3.44847,-1.2227 5.64299,-1.2227 2.7797,0 4.95326,0.4703 6.52078,1.4109 1.58838,0.91973 2.86328,1.92293 3.82471,3.00959 l 21.97627,25.86362 c 0.68964,0.9406 1.27486,1.54653 1.75559,1.8182 0.48066,0.24879 1.04493,0.3772 1.69288,0.3772 0.75236,0 1.21214,-0.2207 1.37939,-0.6585 0.1882,-0.45986 0.2821,-1.09709 0.2821,-1.91249 v -28.96712 h 12.91616 v 35.14317" />
      <path d="m 720.18123,74.022672 h -36.99289 c -2.57071,0 -4.9324,-0.7315 -7.0851,-2.1946 -2.13179,-1.4627 -3.81423,-3.2604 -5.04732,-5.392 -1.21223,-2.132 -1.81832,-4.1592 -1.81832,-6.08176 v -18.80995 c 0,-1.94379 0.76287,-3.88758 2.28857,-5.83138 1.54657,-1.94339 3.37532,-3.53205 5.48621,-4.76518 2.13179,-1.254 3.95011,-1.8808 5.4549,-1.8808 h 36.74209 v 10.28277 h -32.69796 c -0.81512,0 -1.58842,0.20867 -2.31987,0.6268 -0.71063,0.39726 -1.30629,0.93016 -1.78698,1.59909 -0.45978,0.66894 -0.68968,1.3792 -0.68968,2.1316 v 2.63359 h 37.24369 v 10.15717 h -36.99289 v 3.60549 c 0,0.8776 0.51203,1.65086 1.53614,2.31976 1.04497,0.669 2.04816,1.0032 3.00959,1.0032 h 33.66982 v 10.5962" />
      <path d="m 799.99807,39.882672 h -23.29299 v 34.14 h -12.6967 v -44.95567 h 35.98969 v 10.81567 m -39.46954,34.0774 h -12.72805 v -34.1713 h -23.29299 v -10.78437 h 36.02104 v 44.95567" />
    </g>
  </g>
</svg>
